<?xml version="1.0" encoding="utf-8" standalone="no"?>
<!DOCTYPE svg PUBLIC "-//W3C//DTD SVG 1.1//EN"
  "http://www.w3.org/Graphics/SVG/1.1/DTD/svg11.dtd">
<!-- Created with matplotlib (https://matplotlib.org/) -->
<svg height="345.6pt" version="1.1" viewBox="0 0 488.16 345.6" width="488.16pt" xmlns="http://www.w3.org/2000/svg" xmlns:xlink="http://www.w3.org/1999/xlink">
 <defs>
  <style type="text/css">
*{stroke-linecap:butt;stroke-linejoin:round;}
  </style>
 </defs>
 <g id="figure_1">
  <g id="patch_1">
   <path d="M 0 345.6 
L 488.16 345.6 
L 488.16 0 
L 0 0 
z
" style="fill:#ffffff;"/>
  </g>
  <g id="axes_1">
   <g id="patch_2">
    <path d="M 61.02 307.584 
L 439.344 307.584 
L 439.344 41.472 
L 61.02 41.472 
z
" style="fill:#ffffff;"/>
   </g>
   <g id="matplotlib.axis_1">
    <g id="xtick_1">
     <g id="line2d_1">
      <defs>
       <path d="M 0 0 
L 0 3.5 
" id="m23082c3f6c" style="stroke:#000000;stroke-width:0.8;"/>
      </defs>
      <g>
       <use style="stroke:#000000;stroke-width:0.8;" x="100.949142" xlink:href="#m23082c3f6c" y="307.584"/>
      </g>
     </g>
     <g id="text_1">
      <!-- 10 Hz -->
      <defs>
       <path d="M 12.40625 8.296875 
L 28.515625 8.296875 
L 28.515625 63.921875 
L 10.984375 60.40625 
L 10.984375 69.390625 
L 28.421875 72.90625 
L 38.28125 72.90625 
L 38.28125 8.296875 
L 54.390625 8.296875 
L 54.390625 0 
L 12.40625 0 
z
" id="DejaVuSans-49"/>
       <path d="M 31.78125 66.40625 
Q 24.171875 66.40625 20.328125 58.90625 
Q 16.5 51.421875 16.5 36.375 
Q 16.5 21.390625 20.328125 13.890625 
Q 24.171875 6.390625 31.78125 6.390625 
Q 39.453125 6.390625 43.28125 13.890625 
Q 47.125 21.390625 47.125 36.375 
Q 47.125 51.421875 43.28125 58.90625 
Q 39.453125 66.40625 31.78125 66.40625 
z
M 31.78125 74.21875 
Q 44.046875 74.21875 50.515625 64.515625 
Q 56.984375 54.828125 56.984375 36.375 
Q 56.984375 17.96875 50.515625 8.265625 
Q 44.046875 -1.421875 31.78125 -1.421875 
Q 19.53125 -1.421875 13.0625 8.265625 
Q 6.59375 17.96875 6.59375 36.375 
Q 6.59375 54.828125 13.0625 64.515625 
Q 19.53125 74.21875 31.78125 74.21875 
z
" id="DejaVuSans-48"/>
       <path id="DejaVuSans-32"/>
       <path d="M 9.8125 72.90625 
L 19.671875 72.90625 
L 19.671875 43.015625 
L 55.515625 43.015625 
L 55.515625 72.90625 
L 65.375 72.90625 
L 65.375 0 
L 55.515625 0 
L 55.515625 34.71875 
L 19.671875 34.71875 
L 19.671875 0 
L 9.8125 0 
z
" id="DejaVuSans-72"/>
       <path d="M 5.515625 54.6875 
L 48.1875 54.6875 
L 48.1875 46.484375 
L 14.40625 7.171875 
L 48.1875 7.171875 
L 48.1875 0 
L 4.296875 0 
L 4.296875 8.203125 
L 38.09375 47.515625 
L 5.515625 47.515625 
z
" id="DejaVuSans-122"/>
      </defs>
      <g transform="translate(86.613205 322.182437)scale(0.1 -0.1)">
       <use xlink:href="#DejaVuSans-49"/>
       <use x="63.623047" xlink:href="#DejaVuSans-48"/>
       <use x="127.246094" xlink:href="#DejaVuSans-32"/>
       <use x="159.033203" xlink:href="#DejaVuSans-72"/>
       <use x="234.228516" xlink:href="#DejaVuSans-122"/>
      </g>
     </g>
    </g>
    <g id="xtick_2">
     <g id="line2d_2">
      <g>
       <use style="stroke:#000000;stroke-width:0.8;" x="158.07483" xlink:href="#m23082c3f6c" y="307.584"/>
      </g>
     </g>
     <g id="text_2">
      <!-- 100 Hz -->
      <g transform="translate(140.557642 322.182437)scale(0.1 -0.1)">
       <use xlink:href="#DejaVuSans-49"/>
       <use x="63.623047" xlink:href="#DejaVuSans-48"/>
       <use x="127.246094" xlink:href="#DejaVuSans-48"/>
       <use x="190.869141" xlink:href="#DejaVuSans-32"/>
       <use x="222.65625" xlink:href="#DejaVuSans-72"/>
       <use x="297.851562" xlink:href="#DejaVuSans-122"/>
      </g>
     </g>
    </g>
    <g id="xtick_3">
     <g id="line2d_3">
      <g>
       <use style="stroke:#000000;stroke-width:0.8;" x="215.200517" xlink:href="#m23082c3f6c" y="307.584"/>
      </g>
     </g>
     <g id="text_3">
      <!-- 1 kHz -->
      <defs>
       <path d="M 9.078125 75.984375 
L 18.109375 75.984375 
L 18.109375 31.109375 
L 44.921875 54.6875 
L 56.390625 54.6875 
L 27.390625 29.109375 
L 57.625 0 
L 45.90625 0 
L 18.109375 26.703125 
L 18.109375 0 
L 9.078125 0 
z
" id="DejaVuSans-107"/>
      </defs>
      <g transform="translate(201.150517 322.182437)scale(0.1 -0.1)">
       <use xlink:href="#DejaVuSans-49"/>
       <use x="63.623047" xlink:href="#DejaVuSans-32"/>
       <use x="95.410156" xlink:href="#DejaVuSans-107"/>
       <use x="153.320312" xlink:href="#DejaVuSans-72"/>
       <use x="228.515625" xlink:href="#DejaVuSans-122"/>
      </g>
     </g>
    </g>
    <g id="xtick_4">
     <g id="line2d_4">
      <g>
       <use style="stroke:#000000;stroke-width:0.8;" x="272.326204" xlink:href="#m23082c3f6c" y="307.584"/>
      </g>
     </g>
     <g id="text_4">
      <!-- 10 kHz -->
      <g transform="translate(255.094954 322.182437)scale(0.1 -0.1)">
       <use xlink:href="#DejaVuSans-49"/>
       <use x="63.623047" xlink:href="#DejaVuSans-48"/>
       <use x="127.246094" xlink:href="#DejaVuSans-32"/>
       <use x="159.033203" xlink:href="#DejaVuSans-107"/>
       <use x="216.943359" xlink:href="#DejaVuSans-72"/>
       <use x="292.138672" xlink:href="#DejaVuSans-122"/>
      </g>
     </g>
    </g>
    <g id="xtick_5">
     <g id="line2d_5">
      <g>
       <use style="stroke:#000000;stroke-width:0.8;" x="329.451892" xlink:href="#m23082c3f6c" y="307.584"/>
      </g>
     </g>
     <g id="text_5">
      <!-- 100 kHz -->
      <g transform="translate(309.039392 322.182437)scale(0.1 -0.1)">
       <use xlink:href="#DejaVuSans-49"/>
       <use x="63.623047" xlink:href="#DejaVuSans-48"/>
       <use x="127.246094" xlink:href="#DejaVuSans-48"/>
       <use x="190.869141" xlink:href="#DejaVuSans-32"/>
       <use x="222.65625" xlink:href="#DejaVuSans-107"/>
       <use x="280.566406" xlink:href="#DejaVuSans-72"/>
       <use x="355.761719" xlink:href="#DejaVuSans-122"/>
      </g>
     </g>
    </g>
    <g id="xtick_6">
     <g id="line2d_6">
      <g>
       <use style="stroke:#000000;stroke-width:0.8;" x="386.577579" xlink:href="#m23082c3f6c" y="307.584"/>
      </g>
     </g>
     <g id="text_6">
      <!-- 1 MHz -->
      <defs>
       <path d="M 9.8125 72.90625 
L 24.515625 72.90625 
L 43.109375 23.296875 
L 61.8125 72.90625 
L 76.515625 72.90625 
L 76.515625 0 
L 66.890625 0 
L 66.890625 64.015625 
L 48.09375 14.015625 
L 38.1875 14.015625 
L 19.390625 64.015625 
L 19.390625 0 
L 9.8125 0 
z
" id="DejaVuSans-77"/>
      </defs>
      <g transform="translate(371.108829 322.182437)scale(0.1 -0.1)">
       <use xlink:href="#DejaVuSans-49"/>
       <use x="63.623047" xlink:href="#DejaVuSans-32"/>
       <use x="95.410156" xlink:href="#DejaVuSans-77"/>
       <use x="181.689453" xlink:href="#DejaVuSans-72"/>
       <use x="256.884766" xlink:href="#DejaVuSans-122"/>
      </g>
     </g>
    </g>
    <g id="xtick_7">
     <g id="line2d_7">
      <defs>
       <path d="M 0 0 
L 0 2 
" id="m2c000fe472" style="stroke:#000000;stroke-width:0.6;"/>
      </defs>
      <g>
       <use style="stroke:#000000;stroke-width:0.6;" x="61.02" xlink:href="#m2c000fe472" y="307.584"/>
      </g>
     </g>
    </g>
    <g id="xtick_8">
     <g id="line2d_8">
      <g>
       <use style="stroke:#000000;stroke-width:0.6;" x="71.079334" xlink:href="#m2c000fe472" y="307.584"/>
      </g>
     </g>
    </g>
    <g id="xtick_9">
     <g id="line2d_9">
      <g>
       <use style="stroke:#000000;stroke-width:0.6;" x="78.216545" xlink:href="#m2c000fe472" y="307.584"/>
      </g>
     </g>
    </g>
    <g id="xtick_10">
     <g id="line2d_10">
      <g>
       <use style="stroke:#000000;stroke-width:0.6;" x="83.752597" xlink:href="#m2c000fe472" y="307.584"/>
      </g>
     </g>
    </g>
    <g id="xtick_11">
     <g id="line2d_11">
      <g>
       <use style="stroke:#000000;stroke-width:0.6;" x="88.27588" xlink:href="#m2c000fe472" y="307.584"/>
      </g>
     </g>
    </g>
    <g id="xtick_12">
     <g id="line2d_12">
      <g>
       <use style="stroke:#000000;stroke-width:0.6;" x="92.100261" xlink:href="#m2c000fe472" y="307.584"/>
      </g>
     </g>
    </g>
    <g id="xtick_13">
     <g id="line2d_13">
      <g>
       <use style="stroke:#000000;stroke-width:0.6;" x="95.413091" xlink:href="#m2c000fe472" y="307.584"/>
      </g>
     </g>
    </g>
    <g id="xtick_14">
     <g id="line2d_14">
      <g>
       <use style="stroke:#000000;stroke-width:0.6;" x="98.335214" xlink:href="#m2c000fe472" y="307.584"/>
      </g>
     </g>
    </g>
    <g id="xtick_15">
     <g id="line2d_15">
      <g>
       <use style="stroke:#000000;stroke-width:0.6;" x="118.145687" xlink:href="#m2c000fe472" y="307.584"/>
      </g>
     </g>
    </g>
    <g id="xtick_16">
     <g id="line2d_16">
      <g>
       <use style="stroke:#000000;stroke-width:0.6;" x="128.205022" xlink:href="#m2c000fe472" y="307.584"/>
      </g>
     </g>
    </g>
    <g id="xtick_17">
     <g id="line2d_17">
      <g>
       <use style="stroke:#000000;stroke-width:0.6;" x="135.342233" xlink:href="#m2c000fe472" y="307.584"/>
      </g>
     </g>
    </g>
    <g id="xtick_18">
     <g id="line2d_18">
      <g>
       <use style="stroke:#000000;stroke-width:0.6;" x="140.878284" xlink:href="#m2c000fe472" y="307.584"/>
      </g>
     </g>
    </g>
    <g id="xtick_19">
     <g id="line2d_19">
      <g>
       <use style="stroke:#000000;stroke-width:0.6;" x="145.401567" xlink:href="#m2c000fe472" y="307.584"/>
      </g>
     </g>
    </g>
    <g id="xtick_20">
     <g id="line2d_20">
      <g>
       <use style="stroke:#000000;stroke-width:0.6;" x="149.225949" xlink:href="#m2c000fe472" y="307.584"/>
      </g>
     </g>
    </g>
    <g id="xtick_21">
     <g id="line2d_21">
      <g>
       <use style="stroke:#000000;stroke-width:0.6;" x="152.538778" xlink:href="#m2c000fe472" y="307.584"/>
      </g>
     </g>
    </g>
    <g id="xtick_22">
     <g id="line2d_22">
      <g>
       <use style="stroke:#000000;stroke-width:0.6;" x="155.460901" xlink:href="#m2c000fe472" y="307.584"/>
      </g>
     </g>
    </g>
    <g id="xtick_23">
     <g id="line2d_23">
      <g>
       <use style="stroke:#000000;stroke-width:0.6;" x="175.271375" xlink:href="#m2c000fe472" y="307.584"/>
      </g>
     </g>
    </g>
    <g id="xtick_24">
     <g id="line2d_24">
      <g>
       <use style="stroke:#000000;stroke-width:0.6;" x="185.330709" xlink:href="#m2c000fe472" y="307.584"/>
      </g>
     </g>
    </g>
    <g id="xtick_25">
     <g id="line2d_25">
      <g>
       <use style="stroke:#000000;stroke-width:0.6;" x="192.46792" xlink:href="#m2c000fe472" y="307.584"/>
      </g>
     </g>
    </g>
    <g id="xtick_26">
     <g id="line2d_26">
      <g>
       <use style="stroke:#000000;stroke-width:0.6;" x="198.003972" xlink:href="#m2c000fe472" y="307.584"/>
      </g>
     </g>
    </g>
    <g id="xtick_27">
     <g id="line2d_27">
      <g>
       <use style="stroke:#000000;stroke-width:0.6;" x="202.527255" xlink:href="#m2c000fe472" y="307.584"/>
      </g>
     </g>
    </g>
    <g id="xtick_28">
     <g id="line2d_28">
      <g>
       <use style="stroke:#000000;stroke-width:0.6;" x="206.351636" xlink:href="#m2c000fe472" y="307.584"/>
      </g>
     </g>
    </g>
    <g id="xtick_29">
     <g id="line2d_29">
      <g>
       <use style="stroke:#000000;stroke-width:0.6;" x="209.664466" xlink:href="#m2c000fe472" y="307.584"/>
      </g>
     </g>
    </g>
    <g id="xtick_30">
     <g id="line2d_30">
      <g>
       <use style="stroke:#000000;stroke-width:0.6;" x="212.586589" xlink:href="#m2c000fe472" y="307.584"/>
      </g>
     </g>
    </g>
    <g id="xtick_31">
     <g id="line2d_31">
      <g>
       <use style="stroke:#000000;stroke-width:0.6;" x="232.397062" xlink:href="#m2c000fe472" y="307.584"/>
      </g>
     </g>
    </g>
    <g id="xtick_32">
     <g id="line2d_32">
      <g>
       <use style="stroke:#000000;stroke-width:0.6;" x="242.456397" xlink:href="#m2c000fe472" y="307.584"/>
      </g>
     </g>
    </g>
    <g id="xtick_33">
     <g id="line2d_33">
      <g>
       <use style="stroke:#000000;stroke-width:0.6;" x="249.593608" xlink:href="#m2c000fe472" y="307.584"/>
      </g>
     </g>
    </g>
    <g id="xtick_34">
     <g id="line2d_34">
      <g>
       <use style="stroke:#000000;stroke-width:0.6;" x="255.129659" xlink:href="#m2c000fe472" y="307.584"/>
      </g>
     </g>
    </g>
    <g id="xtick_35">
     <g id="line2d_35">
      <g>
       <use style="stroke:#000000;stroke-width:0.6;" x="259.652942" xlink:href="#m2c000fe472" y="307.584"/>
      </g>
     </g>
    </g>
    <g id="xtick_36">
     <g id="line2d_36">
      <g>
       <use style="stroke:#000000;stroke-width:0.6;" x="263.477324" xlink:href="#m2c000fe472" y="307.584"/>
      </g>
     </g>
    </g>
    <g id="xtick_37">
     <g id="line2d_37">
      <g>
       <use style="stroke:#000000;stroke-width:0.6;" x="266.790153" xlink:href="#m2c000fe472" y="307.584"/>
      </g>
     </g>
    </g>
    <g id="xtick_38">
     <g id="line2d_38">
      <g>
       <use style="stroke:#000000;stroke-width:0.6;" x="269.712276" xlink:href="#m2c000fe472" y="307.584"/>
      </g>
     </g>
    </g>
    <g id="xtick_39">
     <g id="line2d_39">
      <g>
       <use style="stroke:#000000;stroke-width:0.6;" x="289.52275" xlink:href="#m2c000fe472" y="307.584"/>
      </g>
     </g>
    </g>
    <g id="xtick_40">
     <g id="line2d_40">
      <g>
       <use style="stroke:#000000;stroke-width:0.6;" x="299.582084" xlink:href="#m2c000fe472" y="307.584"/>
      </g>
     </g>
    </g>
    <g id="xtick_41">
     <g id="line2d_41">
      <g>
       <use style="stroke:#000000;stroke-width:0.6;" x="306.719295" xlink:href="#m2c000fe472" y="307.584"/>
      </g>
     </g>
    </g>
    <g id="xtick_42">
     <g id="line2d_42">
      <g>
       <use style="stroke:#000000;stroke-width:0.6;" x="312.255346" xlink:href="#m2c000fe472" y="307.584"/>
      </g>
     </g>
    </g>
    <g id="xtick_43">
     <g id="line2d_43">
      <g>
       <use style="stroke:#000000;stroke-width:0.6;" x="316.77863" xlink:href="#m2c000fe472" y="307.584"/>
      </g>
     </g>
    </g>
    <g id="xtick_44">
     <g id="line2d_44">
      <g>
       <use style="stroke:#000000;stroke-width:0.6;" x="320.603011" xlink:href="#m2c000fe472" y="307.584"/>
      </g>
     </g>
    </g>
    <g id="xtick_45">
     <g id="line2d_45">
      <g>
       <use style="stroke:#000000;stroke-width:0.6;" x="323.915841" xlink:href="#m2c000fe472" y="307.584"/>
      </g>
     </g>
    </g>
    <g id="xtick_46">
     <g id="line2d_46">
      <g>
       <use style="stroke:#000000;stroke-width:0.6;" x="326.837964" xlink:href="#m2c000fe472" y="307.584"/>
      </g>
     </g>
    </g>
    <g id="xtick_47">
     <g id="line2d_47">
      <g>
       <use style="stroke:#000000;stroke-width:0.6;" x="346.648437" xlink:href="#m2c000fe472" y="307.584"/>
      </g>
     </g>
    </g>
    <g id="xtick_48">
     <g id="line2d_48">
      <g>
       <use style="stroke:#000000;stroke-width:0.6;" x="356.707772" xlink:href="#m2c000fe472" y="307.584"/>
      </g>
     </g>
    </g>
    <g id="xtick_49">
     <g id="line2d_49">
      <g>
       <use style="stroke:#000000;stroke-width:0.6;" x="363.844983" xlink:href="#m2c000fe472" y="307.584"/>
      </g>
     </g>
    </g>
    <g id="xtick_50">
     <g id="line2d_50">
      <g>
       <use style="stroke:#000000;stroke-width:0.6;" x="369.381034" xlink:href="#m2c000fe472" y="307.584"/>
      </g>
     </g>
    </g>
    <g id="xtick_51">
     <g id="line2d_51">
      <g>
       <use style="stroke:#000000;stroke-width:0.6;" x="373.904317" xlink:href="#m2c000fe472" y="307.584"/>
      </g>
     </g>
    </g>
    <g id="xtick_52">
     <g id="line2d_52">
      <g>
       <use style="stroke:#000000;stroke-width:0.6;" x="377.728698" xlink:href="#m2c000fe472" y="307.584"/>
      </g>
     </g>
    </g>
    <g id="xtick_53">
     <g id="line2d_53">
      <g>
       <use style="stroke:#000000;stroke-width:0.6;" x="381.041528" xlink:href="#m2c000fe472" y="307.584"/>
      </g>
     </g>
    </g>
    <g id="xtick_54">
     <g id="line2d_54">
      <g>
       <use style="stroke:#000000;stroke-width:0.6;" x="383.963651" xlink:href="#m2c000fe472" y="307.584"/>
      </g>
     </g>
    </g>
    <g id="xtick_55">
     <g id="line2d_55">
      <g>
       <use style="stroke:#000000;stroke-width:0.6;" x="403.774125" xlink:href="#m2c000fe472" y="307.584"/>
      </g>
     </g>
    </g>
    <g id="xtick_56">
     <g id="line2d_56">
      <g>
       <use style="stroke:#000000;stroke-width:0.6;" x="413.833459" xlink:href="#m2c000fe472" y="307.584"/>
      </g>
     </g>
    </g>
    <g id="xtick_57">
     <g id="line2d_57">
      <g>
       <use style="stroke:#000000;stroke-width:0.6;" x="420.97067" xlink:href="#m2c000fe472" y="307.584"/>
      </g>
     </g>
    </g>
    <g id="xtick_58">
     <g id="line2d_58">
      <g>
       <use style="stroke:#000000;stroke-width:0.6;" x="426.506721" xlink:href="#m2c000fe472" y="307.584"/>
      </g>
     </g>
    </g>
    <g id="xtick_59">
     <g id="line2d_59">
      <g>
       <use style="stroke:#000000;stroke-width:0.6;" x="431.030005" xlink:href="#m2c000fe472" y="307.584"/>
      </g>
     </g>
    </g>
    <g id="xtick_60">
     <g id="line2d_60">
      <g>
       <use style="stroke:#000000;stroke-width:0.6;" x="434.854386" xlink:href="#m2c000fe472" y="307.584"/>
      </g>
     </g>
    </g>
    <g id="xtick_61">
     <g id="line2d_61">
      <g>
       <use style="stroke:#000000;stroke-width:0.6;" x="438.167216" xlink:href="#m2c000fe472" y="307.584"/>
      </g>
     </g>
    </g>
   </g>
   <g id="matplotlib.axis_2">
    <g id="ytick_1">
     <g id="line2d_62">
      <defs>
       <path d="M 0 0 
L -3.5 0 
" id="mf5b1b1ebbb" style="stroke:#000000;stroke-width:0.8;"/>
      </defs>
      <g>
       <use style="stroke:#000000;stroke-width:0.8;" x="61.02" xlink:href="#mf5b1b1ebbb" y="303.211966"/>
      </g>
     </g>
     <g id="text_7">
      <!-- 100 yV²/Hz -->
      <defs>
       <path d="M 32.171875 -5.078125 
Q 28.375 -14.84375 24.75 -17.8125 
Q 21.140625 -20.796875 15.09375 -20.796875 
L 7.90625 -20.796875 
L 7.90625 -13.28125 
L 13.1875 -13.28125 
Q 16.890625 -13.28125 18.9375 -11.515625 
Q 21 -9.765625 23.484375 -3.21875 
L 25.09375 0.875 
L 2.984375 54.6875 
L 12.5 54.6875 
L 29.59375 11.921875 
L 46.6875 54.6875 
L 56.203125 54.6875 
z
" id="DejaVuSans-121"/>
       <path d="M 28.609375 0 
L 0.78125 72.90625 
L 11.078125 72.90625 
L 34.1875 11.53125 
L 57.328125 72.90625 
L 67.578125 72.90625 
L 39.796875 0 
z
" id="DejaVuSans-86"/>
       <path d="M 13.09375 38.1875 
L 33.796875 38.1875 
L 33.796875 32.625 
L 4.59375 32.625 
L 4.59375 37.984375 
Q 6.25 39.5 9.328125 42.234375 
Q 26.125 57.125 26.125 61.71875 
Q 26.125 64.9375 23.578125 66.90625 
Q 21.046875 68.890625 16.890625 68.890625 
Q 14.359375 68.890625 11.375 68.03125 
Q 8.40625 67.1875 4.890625 65.484375 
L 4.890625 71.484375 
Q 8.640625 72.859375 11.890625 73.53125 
Q 15.140625 74.21875 17.921875 74.21875 
Q 25 74.21875 29.25 71 
Q 33.5 67.78125 33.5 62.5 
Q 33.5 55.71875 17.328125 41.84375 
Q 14.59375 39.5 13.09375 38.1875 
z
" id="DejaVuSans-178"/>
       <path d="M 25.390625 72.90625 
L 33.6875 72.90625 
L 8.296875 -9.28125 
L 0 -9.28125 
z
" id="DejaVuSans-47"/>
      </defs>
      <g transform="translate(-1.151875 307.011184)scale(0.1 -0.1)">
       <use xlink:href="#DejaVuSans-49"/>
       <use x="63.623047" xlink:href="#DejaVuSans-48"/>
       <use x="127.246094" xlink:href="#DejaVuSans-48"/>
       <use x="190.869141" xlink:href="#DejaVuSans-32"/>
       <use x="222.65625" xlink:href="#DejaVuSans-121"/>
       <use x="281.835938" xlink:href="#DejaVuSans-86"/>
       <use x="350.244141" xlink:href="#DejaVuSans-178"/>
       <use x="390.332031" xlink:href="#DejaVuSans-47"/>
       <use x="424.023438" xlink:href="#DejaVuSans-72"/>
       <use x="499.21875" xlink:href="#DejaVuSans-122"/>
      </g>
     </g>
    </g>
    <g id="ytick_2">
     <g id="line2d_63">
      <g>
       <use style="stroke:#000000;stroke-width:0.8;" x="61.02" xlink:href="#mf5b1b1ebbb" y="264.209998"/>
      </g>
     </g>
     <g id="text_8">
      <!-- 1 zV²/Hz -->
      <g transform="translate(12.243437 268.009217)scale(0.1 -0.1)">
       <use xlink:href="#DejaVuSans-49"/>
       <use x="63.623047" xlink:href="#DejaVuSans-32"/>
       <use x="95.410156" xlink:href="#DejaVuSans-122"/>
       <use x="147.900391" xlink:href="#DejaVuSans-86"/>
       <use x="216.308594" xlink:href="#DejaVuSans-178"/>
       <use x="256.396484" xlink:href="#DejaVuSans-47"/>
       <use x="290.087891" xlink:href="#DejaVuSans-72"/>
       <use x="365.283203" xlink:href="#DejaVuSans-122"/>
      </g>
     </g>
    </g>
    <g id="ytick_3">
     <g id="line2d_64">
      <g>
       <use style="stroke:#000000;stroke-width:0.8;" x="61.02" xlink:href="#mf5b1b1ebbb" y="225.208031"/>
      </g>
     </g>
     <g id="text_9">
      <!-- 10 zV²/Hz -->
      <g transform="translate(5.880938 229.007249)scale(0.1 -0.1)">
       <use xlink:href="#DejaVuSans-49"/>
       <use x="63.623047" xlink:href="#DejaVuSans-48"/>
       <use x="127.246094" xlink:href="#DejaVuSans-32"/>
       <use x="159.033203" xlink:href="#DejaVuSans-122"/>
       <use x="211.523438" xlink:href="#DejaVuSans-86"/>
       <use x="279.931641" xlink:href="#DejaVuSans-178"/>
       <use x="320.019531" xlink:href="#DejaVuSans-47"/>
       <use x="353.710938" xlink:href="#DejaVuSans-72"/>
       <use x="428.90625" xlink:href="#DejaVuSans-122"/>
      </g>
     </g>
    </g>
    <g id="ytick_4">
     <g id="line2d_65">
      <g>
       <use style="stroke:#000000;stroke-width:0.8;" x="61.02" xlink:href="#mf5b1b1ebbb" y="186.206063"/>
      </g>
     </g>
     <g id="text_10">
      <!-- 100 zV²/Hz -->
      <g transform="translate(-0.481563 190.005282)scale(0.1 -0.1)">
       <use xlink:href="#DejaVuSans-49"/>
       <use x="63.623047" xlink:href="#DejaVuSans-48"/>
       <use x="127.246094" xlink:href="#DejaVuSans-48"/>
       <use x="190.869141" xlink:href="#DejaVuSans-32"/>
       <use x="222.65625" xlink:href="#DejaVuSans-122"/>
       <use x="275.146484" xlink:href="#DejaVuSans-86"/>
       <use x="343.554688" xlink:href="#DejaVuSans-178"/>
       <use x="383.642578" xlink:href="#DejaVuSans-47"/>
       <use x="417.333984" xlink:href="#DejaVuSans-72"/>
       <use x="492.529297" xlink:href="#DejaVuSans-122"/>
      </g>
     </g>
    </g>
    <g id="ytick_5">
     <g id="line2d_66">
      <g>
       <use style="stroke:#000000;stroke-width:0.8;" x="61.02" xlink:href="#mf5b1b1ebbb" y="147.204095"/>
      </g>
     </g>
     <g id="text_11">
      <!-- 1 aV²/Hz -->
      <defs>
       <path d="M 34.28125 27.484375 
Q 23.390625 27.484375 19.1875 25 
Q 14.984375 22.515625 14.984375 16.5 
Q 14.984375 11.71875 18.140625 8.90625 
Q 21.296875 6.109375 26.703125 6.109375 
Q 34.1875 6.109375 38.703125 11.40625 
Q 43.21875 16.703125 43.21875 25.484375 
L 43.21875 27.484375 
z
M 52.203125 31.203125 
L 52.203125 0 
L 43.21875 0 
L 43.21875 8.296875 
Q 40.140625 3.328125 35.546875 0.953125 
Q 30.953125 -1.421875 24.3125 -1.421875 
Q 15.921875 -1.421875 10.953125 3.296875 
Q 6 8.015625 6 15.921875 
Q 6 25.140625 12.171875 29.828125 
Q 18.359375 34.515625 30.609375 34.515625 
L 43.21875 34.515625 
L 43.21875 35.40625 
Q 43.21875 41.609375 39.140625 45 
Q 35.0625 48.390625 27.6875 48.390625 
Q 23 48.390625 18.546875 47.265625 
Q 14.109375 46.140625 10.015625 43.890625 
L 10.015625 52.203125 
Q 14.9375 54.109375 19.578125 55.046875 
Q 24.21875 56 28.609375 56 
Q 40.484375 56 46.34375 49.84375 
Q 52.203125 43.703125 52.203125 31.203125 
z
" id="DejaVuSans-97"/>
      </defs>
      <g transform="translate(11.36375 151.003314)scale(0.1 -0.1)">
       <use xlink:href="#DejaVuSans-49"/>
       <use x="63.623047" xlink:href="#DejaVuSans-32"/>
       <use x="95.410156" xlink:href="#DejaVuSans-97"/>
       <use x="156.689453" xlink:href="#DejaVuSans-86"/>
       <use x="225.097656" xlink:href="#DejaVuSans-178"/>
       <use x="265.185547" xlink:href="#DejaVuSans-47"/>
       <use x="298.876953" xlink:href="#DejaVuSans-72"/>
       <use x="374.072266" xlink:href="#DejaVuSans-122"/>
      </g>
     </g>
    </g>
    <g id="ytick_6">
     <g id="line2d_67">
      <g>
       <use style="stroke:#000000;stroke-width:0.8;" x="61.02" xlink:href="#mf5b1b1ebbb" y="108.202128"/>
      </g>
     </g>
     <g id="text_12">
      <!-- 10 aV²/Hz -->
      <g transform="translate(5.00125 112.001347)scale(0.1 -0.1)">
       <use xlink:href="#DejaVuSans-49"/>
       <use x="63.623047" xlink:href="#DejaVuSans-48"/>
       <use x="127.246094" xlink:href="#DejaVuSans-32"/>
       <use x="159.033203" xlink:href="#DejaVuSans-97"/>
       <use x="220.3125" xlink:href="#DejaVuSans-86"/>
       <use x="288.720703" xlink:href="#DejaVuSans-178"/>
       <use x="328.808594" xlink:href="#DejaVuSans-47"/>
       <use x="362.5" xlink:href="#DejaVuSans-72"/>
       <use x="437.695312" xlink:href="#DejaVuSans-122"/>
      </g>
     </g>
    </g>
    <g id="ytick_7">
     <g id="line2d_68">
      <g>
       <use style="stroke:#000000;stroke-width:0.8;" x="61.02" xlink:href="#mf5b1b1ebbb" y="69.20016"/>
      </g>
     </g>
     <g id="text_13">
      <!-- 100 aV²/Hz -->
      <g transform="translate(-1.36125 72.999379)scale(0.1 -0.1)">
       <use xlink:href="#DejaVuSans-49"/>
       <use x="63.623047" xlink:href="#DejaVuSans-48"/>
       <use x="127.246094" xlink:href="#DejaVuSans-48"/>
       <use x="190.869141" xlink:href="#DejaVuSans-32"/>
       <use x="222.65625" xlink:href="#DejaVuSans-97"/>
       <use x="283.935547" xlink:href="#DejaVuSans-86"/>
       <use x="352.34375" xlink:href="#DejaVuSans-178"/>
       <use x="392.431641" xlink:href="#DejaVuSans-47"/>
       <use x="426.123047" xlink:href="#DejaVuSans-72"/>
       <use x="501.318359" xlink:href="#DejaVuSans-122"/>
      </g>
     </g>
    </g>
    <g id="ytick_8">
     <g id="line2d_69">
      <defs>
       <path d="M 0 0 
L -2 0 
" id="mae44e42f91" style="stroke:#000000;stroke-width:0.6;"/>
      </defs>
      <g>
       <use style="stroke:#000000;stroke-width:0.6;" x="61.02" xlink:href="#mae44e42f91" y="306.991647"/>
      </g>
     </g>
    </g>
    <g id="ytick_9">
     <g id="line2d_70">
      <g>
       <use style="stroke:#000000;stroke-width:0.6;" x="61.02" xlink:href="#mae44e42f91" y="304.996598"/>
      </g>
     </g>
    </g>
    <g id="ytick_10">
     <g id="line2d_71">
      <g>
       <use style="stroke:#000000;stroke-width:0.6;" x="61.02" xlink:href="#mae44e42f91" y="291.471203"/>
      </g>
     </g>
    </g>
    <g id="ytick_11">
     <g id="line2d_72">
      <g>
       <use style="stroke:#000000;stroke-width:0.6;" x="61.02" xlink:href="#mae44e42f91" y="284.603298"/>
      </g>
     </g>
    </g>
    <g id="ytick_12">
     <g id="line2d_73">
      <g>
       <use style="stroke:#000000;stroke-width:0.6;" x="61.02" xlink:href="#mae44e42f91" y="279.730441"/>
      </g>
     </g>
    </g>
    <g id="ytick_13">
     <g id="line2d_74">
      <g>
       <use style="stroke:#000000;stroke-width:0.6;" x="61.02" xlink:href="#mae44e42f91" y="275.95076"/>
      </g>
     </g>
    </g>
    <g id="ytick_14">
     <g id="line2d_75">
      <g>
       <use style="stroke:#000000;stroke-width:0.6;" x="61.02" xlink:href="#mae44e42f91" y="272.862536"/>
      </g>
     </g>
    </g>
    <g id="ytick_15">
     <g id="line2d_76">
      <g>
       <use style="stroke:#000000;stroke-width:0.6;" x="61.02" xlink:href="#mae44e42f91" y="270.251479"/>
      </g>
     </g>
    </g>
    <g id="ytick_16">
     <g id="line2d_77">
      <g>
       <use style="stroke:#000000;stroke-width:0.6;" x="61.02" xlink:href="#mae44e42f91" y="267.989679"/>
      </g>
     </g>
    </g>
    <g id="ytick_17">
     <g id="line2d_78">
      <g>
       <use style="stroke:#000000;stroke-width:0.6;" x="61.02" xlink:href="#mae44e42f91" y="265.99463"/>
      </g>
     </g>
    </g>
    <g id="ytick_18">
     <g id="line2d_79">
      <g>
       <use style="stroke:#000000;stroke-width:0.6;" x="61.02" xlink:href="#mae44e42f91" y="252.469236"/>
      </g>
     </g>
    </g>
    <g id="ytick_19">
     <g id="line2d_80">
      <g>
       <use style="stroke:#000000;stroke-width:0.6;" x="61.02" xlink:href="#mae44e42f91" y="245.60133"/>
      </g>
     </g>
    </g>
    <g id="ytick_20">
     <g id="line2d_81">
      <g>
       <use style="stroke:#000000;stroke-width:0.6;" x="61.02" xlink:href="#mae44e42f91" y="240.728474"/>
      </g>
     </g>
    </g>
    <g id="ytick_21">
     <g id="line2d_82">
      <g>
       <use style="stroke:#000000;stroke-width:0.6;" x="61.02" xlink:href="#mae44e42f91" y="236.948793"/>
      </g>
     </g>
    </g>
    <g id="ytick_22">
     <g id="line2d_83">
      <g>
       <use style="stroke:#000000;stroke-width:0.6;" x="61.02" xlink:href="#mae44e42f91" y="233.860568"/>
      </g>
     </g>
    </g>
    <g id="ytick_23">
     <g id="line2d_84">
      <g>
       <use style="stroke:#000000;stroke-width:0.6;" x="61.02" xlink:href="#mae44e42f91" y="231.249512"/>
      </g>
     </g>
    </g>
    <g id="ytick_24">
     <g id="line2d_85">
      <g>
       <use style="stroke:#000000;stroke-width:0.6;" x="61.02" xlink:href="#mae44e42f91" y="228.987712"/>
      </g>
     </g>
    </g>
    <g id="ytick_25">
     <g id="line2d_86">
      <g>
       <use style="stroke:#000000;stroke-width:0.6;" x="61.02" xlink:href="#mae44e42f91" y="226.992663"/>
      </g>
     </g>
    </g>
    <g id="ytick_26">
     <g id="line2d_87">
      <g>
       <use style="stroke:#000000;stroke-width:0.6;" x="61.02" xlink:href="#mae44e42f91" y="213.467268"/>
      </g>
     </g>
    </g>
    <g id="ytick_27">
     <g id="line2d_88">
      <g>
       <use style="stroke:#000000;stroke-width:0.6;" x="61.02" xlink:href="#mae44e42f91" y="206.599363"/>
      </g>
     </g>
    </g>
    <g id="ytick_28">
     <g id="line2d_89">
      <g>
       <use style="stroke:#000000;stroke-width:0.6;" x="61.02" xlink:href="#mae44e42f91" y="201.726506"/>
      </g>
     </g>
    </g>
    <g id="ytick_29">
     <g id="line2d_90">
      <g>
       <use style="stroke:#000000;stroke-width:0.6;" x="61.02" xlink:href="#mae44e42f91" y="197.946825"/>
      </g>
     </g>
    </g>
    <g id="ytick_30">
     <g id="line2d_91">
      <g>
       <use style="stroke:#000000;stroke-width:0.6;" x="61.02" xlink:href="#mae44e42f91" y="194.858601"/>
      </g>
     </g>
    </g>
    <g id="ytick_31">
     <g id="line2d_92">
      <g>
       <use style="stroke:#000000;stroke-width:0.6;" x="61.02" xlink:href="#mae44e42f91" y="192.247544"/>
      </g>
     </g>
    </g>
    <g id="ytick_32">
     <g id="line2d_93">
      <g>
       <use style="stroke:#000000;stroke-width:0.6;" x="61.02" xlink:href="#mae44e42f91" y="189.985744"/>
      </g>
     </g>
    </g>
    <g id="ytick_33">
     <g id="line2d_94">
      <g>
       <use style="stroke:#000000;stroke-width:0.6;" x="61.02" xlink:href="#mae44e42f91" y="187.990695"/>
      </g>
     </g>
    </g>
    <g id="ytick_34">
     <g id="line2d_95">
      <g>
       <use style="stroke:#000000;stroke-width:0.6;" x="61.02" xlink:href="#mae44e42f91" y="174.465301"/>
      </g>
     </g>
    </g>
    <g id="ytick_35">
     <g id="line2d_96">
      <g>
       <use style="stroke:#000000;stroke-width:0.6;" x="61.02" xlink:href="#mae44e42f91" y="167.597395"/>
      </g>
     </g>
    </g>
    <g id="ytick_36">
     <g id="line2d_97">
      <g>
       <use style="stroke:#000000;stroke-width:0.6;" x="61.02" xlink:href="#mae44e42f91" y="162.724539"/>
      </g>
     </g>
    </g>
    <g id="ytick_37">
     <g id="line2d_98">
      <g>
       <use style="stroke:#000000;stroke-width:0.6;" x="61.02" xlink:href="#mae44e42f91" y="158.944858"/>
      </g>
     </g>
    </g>
    <g id="ytick_38">
     <g id="line2d_99">
      <g>
       <use style="stroke:#000000;stroke-width:0.6;" x="61.02" xlink:href="#mae44e42f91" y="155.856633"/>
      </g>
     </g>
    </g>
    <g id="ytick_39">
     <g id="line2d_100">
      <g>
       <use style="stroke:#000000;stroke-width:0.6;" x="61.02" xlink:href="#mae44e42f91" y="153.245577"/>
      </g>
     </g>
    </g>
    <g id="ytick_40">
     <g id="line2d_101">
      <g>
       <use style="stroke:#000000;stroke-width:0.6;" x="61.02" xlink:href="#mae44e42f91" y="150.983777"/>
      </g>
     </g>
    </g>
    <g id="ytick_41">
     <g id="line2d_102">
      <g>
       <use style="stroke:#000000;stroke-width:0.6;" x="61.02" xlink:href="#mae44e42f91" y="148.988728"/>
      </g>
     </g>
    </g>
    <g id="ytick_42">
     <g id="line2d_103">
      <g>
       <use style="stroke:#000000;stroke-width:0.6;" x="61.02" xlink:href="#mae44e42f91" y="135.463333"/>
      </g>
     </g>
    </g>
    <g id="ytick_43">
     <g id="line2d_104">
      <g>
       <use style="stroke:#000000;stroke-width:0.6;" x="61.02" xlink:href="#mae44e42f91" y="128.595428"/>
      </g>
     </g>
    </g>
    <g id="ytick_44">
     <g id="line2d_105">
      <g>
       <use style="stroke:#000000;stroke-width:0.6;" x="61.02" xlink:href="#mae44e42f91" y="123.722571"/>
      </g>
     </g>
    </g>
    <g id="ytick_45">
     <g id="line2d_106">
      <g>
       <use style="stroke:#000000;stroke-width:0.6;" x="61.02" xlink:href="#mae44e42f91" y="119.94289"/>
      </g>
     </g>
    </g>
    <g id="ytick_46">
     <g id="line2d_107">
      <g>
       <use style="stroke:#000000;stroke-width:0.6;" x="61.02" xlink:href="#mae44e42f91" y="116.854666"/>
      </g>
     </g>
    </g>
    <g id="ytick_47">
     <g id="line2d_108">
      <g>
       <use style="stroke:#000000;stroke-width:0.6;" x="61.02" xlink:href="#mae44e42f91" y="114.243609"/>
      </g>
     </g>
    </g>
    <g id="ytick_48">
     <g id="line2d_109">
      <g>
       <use style="stroke:#000000;stroke-width:0.6;" x="61.02" xlink:href="#mae44e42f91" y="111.981809"/>
      </g>
     </g>
    </g>
    <g id="ytick_49">
     <g id="line2d_110">
      <g>
       <use style="stroke:#000000;stroke-width:0.6;" x="61.02" xlink:href="#mae44e42f91" y="109.98676"/>
      </g>
     </g>
    </g>
    <g id="ytick_50">
     <g id="line2d_111">
      <g>
       <use style="stroke:#000000;stroke-width:0.6;" x="61.02" xlink:href="#mae44e42f91" y="96.461366"/>
      </g>
     </g>
    </g>
    <g id="ytick_51">
     <g id="line2d_112">
      <g>
       <use style="stroke:#000000;stroke-width:0.6;" x="61.02" xlink:href="#mae44e42f91" y="89.59346"/>
      </g>
     </g>
    </g>
    <g id="ytick_52">
     <g id="line2d_113">
      <g>
       <use style="stroke:#000000;stroke-width:0.6;" x="61.02" xlink:href="#mae44e42f91" y="84.720604"/>
      </g>
     </g>
    </g>
    <g id="ytick_53">
     <g id="line2d_114">
      <g>
       <use style="stroke:#000000;stroke-width:0.6;" x="61.02" xlink:href="#mae44e42f91" y="80.940922"/>
      </g>
     </g>
    </g>
    <g id="ytick_54">
     <g id="line2d_115">
      <g>
       <use style="stroke:#000000;stroke-width:0.6;" x="61.02" xlink:href="#mae44e42f91" y="77.852698"/>
      </g>
     </g>
    </g>
    <g id="ytick_55">
     <g id="line2d_116">
      <g>
       <use style="stroke:#000000;stroke-width:0.6;" x="61.02" xlink:href="#mae44e42f91" y="75.241641"/>
      </g>
     </g>
    </g>
    <g id="ytick_56">
     <g id="line2d_117">
      <g>
       <use style="stroke:#000000;stroke-width:0.6;" x="61.02" xlink:href="#mae44e42f91" y="72.979841"/>
      </g>
     </g>
    </g>
    <g id="ytick_57">
     <g id="line2d_118">
      <g>
       <use style="stroke:#000000;stroke-width:0.6;" x="61.02" xlink:href="#mae44e42f91" y="70.984792"/>
      </g>
     </g>
    </g>
    <g id="ytick_58">
     <g id="line2d_119">
      <g>
       <use style="stroke:#000000;stroke-width:0.6;" x="61.02" xlink:href="#mae44e42f91" y="57.459398"/>
      </g>
     </g>
    </g>
    <g id="ytick_59">
     <g id="line2d_120">
      <g>
       <use style="stroke:#000000;stroke-width:0.6;" x="61.02" xlink:href="#mae44e42f91" y="50.591493"/>
      </g>
     </g>
    </g>
    <g id="ytick_60">
     <g id="line2d_121">
      <g>
       <use style="stroke:#000000;stroke-width:0.6;" x="61.02" xlink:href="#mae44e42f91" y="45.718636"/>
      </g>
     </g>
    </g>
    <g id="ytick_61">
     <g id="line2d_122">
      <g>
       <use style="stroke:#000000;stroke-width:0.6;" x="61.02" xlink:href="#mae44e42f91" y="41.938955"/>
      </g>
     </g>
    </g>
   </g>
   <g id="line2d_123">
    <path clip-path="url(#p862303172d)" d="M 78.216545 53.568 
L 271.072866 185.103801 
L 299.321519 204.102748 
L 315.773717 214.918344 
L 326.284843 221.581433 
L 333.168489 225.700281 
L 337.824232 228.242644 
L 341.051834 229.768171 
L 343.393987 230.64395 
L 345.13632 231.071565 
L 346.478774 231.182582 
L 347.535599 231.05598 
L 348.392484 230.7398 
L 349.135118 230.232209 
L 349.792064 229.511778 
L 350.391883 228.515885 
L 350.934577 227.182614 
L 351.448709 225.305148 
L 351.905714 222.776995 
L 352.334157 219.029695 
L 352.676911 214.043889 
L 352.962539 206.60713 
L 353.162479 196.104774 
L 353.305294 175.609482 
L 353.362419 110.134144 
L 353.390982 165.08277 
L 353.562359 196.430546 
L 353.847988 209.824253 
L 354.219305 217.619961 
L 354.67631 222.926708 
L 355.219004 226.822971 
L 355.875949 229.949311 
L 356.618583 232.432241 
L 357.504032 234.618197 
L 358.532294 236.568752 
L 359.789059 238.466124 
L 361.30289 240.342321 
L 363.188037 242.314508 
L 365.415939 244.319875 
L 367.472464 245.89434 
L 368.672103 246.570936 
L 369.271923 246.690284 
L 369.614677 246.557822 
L 369.871743 246.207419 
L 370.071683 245.562106 
L 370.24306 244.291635 
L 370.385874 241.491897 
L 370.471563 236.528575 
L 370.528688 224.738821 
L 370.557251 162.603405 
L 370.614377 232.551276 
L 370.785754 243.260223 
L 371.042819 246.24555 
L 371.385574 247.659958 
L 371.871142 248.666352 
L 372.585213 249.601284 
L 373.784852 250.774148 
L 375.955629 252.553347 
L 378.869039 254.666319 
L 379.868738 255.183114 
L 380.182929 255.138004 
L 380.354307 254.84444 
L 380.468558 254.140555 
L 380.554246 251.949236 
L 380.582809 249.171044 
L 380.611372 232.635764 
L 380.668498 251.217883 
L 380.839875 254.997879 
L 381.09694 255.852363 
L 381.525383 256.443147 
L 382.467957 257.283563 
L 385.01005 259.17608 
L 387.237952 260.630118 
L 387.52358 260.615965 
L 387.637832 260.319069 
L 387.694957 259.648725 
L 387.72352 258.402468 
L 387.752083 240.525089 
L 387.809209 259.608355 
L 387.980586 260.928006 
L 388.294777 261.382748 
L 389.151662 262.09032 
L 392.350701 264.349463 
L 393.093335 264.720277 
L 393.179023 264.635305 
L 393.236149 264.329312 
L 393.264712 263.622973 
L 393.293275 255.294389 
L 393.3504 264.471553 
L 393.521778 265.046681 
L 393.978783 265.473668 
L 396.292373 267.127063 
L 411.259303 277.45065 
L 422.147455 284.906731 
L 422.147455 284.906731 
" style="fill:none;stroke:#1f77b4;stroke-linecap:square;stroke-width:2;"/>
   </g>
   <g id="line2d_124">
    <path clip-path="url(#p862303172d)" d="M 78.216545 236.801022 
L 273.757774 236.690004 
L 287.867819 236.452339 
L 296.436672 236.098032 
L 302.577683 235.631872 
L 307.347678 235.054534 
L 311.203662 234.370168 
L 314.4027 233.583155 
L 317.11617 232.693683 
L 319.458324 231.699096 
L 321.514848 230.590004 
L 323.34287 229.354778 
L 324.970953 227.989644 
L 326.45622 226.451712 
L 327.798674 224.737185 
L 329.026876 222.799656 
L 330.140827 220.619227 
L 331.16909 218.099125 
L 332.083101 215.262475 
L 332.911423 211.958155 
L 333.654057 208.056487 
L 334.311002 203.353581 
L 334.853696 197.849072 
L 335.310702 190.896645 
L 335.653456 182.438119 
L 335.910522 170.776949 
L 336.081899 151.899533 
L 336.139024 132.117755 
L 336.167587 94.942433 
L 336.224713 146.490632 
L 336.424653 171.327431 
L 336.738844 184.751206 
L 337.167287 194.197059 
L 337.709981 201.531456 
L 338.366926 207.543453 
L 339.138123 212.647442 
L 340.052134 217.216267 
L 341.080396 221.232865 
L 342.251473 224.91123 
L 343.565364 228.302726 
L 345.022069 231.454041 
L 346.678714 234.503957 
L 348.535299 237.45047 
L 350.620386 240.34048 
L 352.991102 243.244087 
L 355.704572 246.213444 
L 358.875048 249.346405 
L 362.559655 252.668946 
L 363.359415 253.289445 
L 363.387977 253.250095 
L 363.41654 252.343162 
L 363.473666 253.375507 
L 363.759294 253.689475 
L 366.644142 256.091705 
L 372.071082 260.351071 
L 379.126104 265.592908 
L 388.980285 272.618483 
L 404.804101 283.596459 
L 422.147455 295.488 
L 422.147455 295.488 
" style="fill:none;stroke:#ff7f0e;stroke-linecap:square;stroke-width:2;"/>
   </g>
   <g id="patch_3">
    <path d="M 61.02 307.584 
L 61.02 41.472 
" style="fill:none;stroke:#000000;stroke-linecap:square;stroke-linejoin:miter;stroke-width:0.8;"/>
   </g>
   <g id="patch_4">
    <path d="M 439.344 307.584 
L 439.344 41.472 
" style="fill:none;stroke:#000000;stroke-linecap:square;stroke-linejoin:miter;stroke-width:0.8;"/>
   </g>
   <g id="patch_5">
    <path d="M 61.02 307.584 
L 439.344 307.584 
" style="fill:none;stroke:#000000;stroke-linecap:square;stroke-linejoin:miter;stroke-width:0.8;"/>
   </g>
   <g id="patch_6">
    <path d="M 61.02 41.472 
L 439.344 41.472 
" style="fill:none;stroke:#000000;stroke-linecap:square;stroke-linejoin:miter;stroke-width:0.8;"/>
   </g>
   <g id="legend_1">
    <g id="line2d_125">
     <path d="M 355.019 54.570437 
L 375.019 54.570437 
" style="fill:none;stroke:#1f77b4;stroke-linecap:square;stroke-width:2;"/>
    </g>
    <g id="line2d_126"/>
    <g id="text_14">
     <!-- fnoimod0 -->
     <defs>
      <path d="M 37.109375 75.984375 
L 37.109375 68.5 
L 28.515625 68.5 
Q 23.6875 68.5 21.796875 66.546875 
Q 19.921875 64.59375 19.921875 59.515625 
L 19.921875 54.6875 
L 34.71875 54.6875 
L 34.71875 47.703125 
L 19.921875 47.703125 
L 19.921875 0 
L 10.890625 0 
L 10.890625 47.703125 
L 2.296875 47.703125 
L 2.296875 54.6875 
L 10.890625 54.6875 
L 10.890625 58.5 
Q 10.890625 67.625 15.140625 71.796875 
Q 19.390625 75.984375 28.609375 75.984375 
z
" id="DejaVuSans-102"/>
      <path d="M 54.890625 33.015625 
L 54.890625 0 
L 45.90625 0 
L 45.90625 32.71875 
Q 45.90625 40.484375 42.875 44.328125 
Q 39.84375 48.1875 33.796875 48.1875 
Q 26.515625 48.1875 22.3125 43.546875 
Q 18.109375 38.921875 18.109375 30.90625 
L 18.109375 0 
L 9.078125 0 
L 9.078125 54.6875 
L 18.109375 54.6875 
L 18.109375 46.1875 
Q 21.34375 51.125 25.703125 53.5625 
Q 30.078125 56 35.796875 56 
Q 45.21875 56 50.046875 50.171875 
Q 54.890625 44.34375 54.890625 33.015625 
z
" id="DejaVuSans-110"/>
      <path d="M 30.609375 48.390625 
Q 23.390625 48.390625 19.1875 42.75 
Q 14.984375 37.109375 14.984375 27.296875 
Q 14.984375 17.484375 19.15625 11.84375 
Q 23.34375 6.203125 30.609375 6.203125 
Q 37.796875 6.203125 41.984375 11.859375 
Q 46.1875 17.53125 46.1875 27.296875 
Q 46.1875 37.015625 41.984375 42.703125 
Q 37.796875 48.390625 30.609375 48.390625 
z
M 30.609375 56 
Q 42.328125 56 49.015625 48.375 
Q 55.71875 40.765625 55.71875 27.296875 
Q 55.71875 13.875 49.015625 6.21875 
Q 42.328125 -1.421875 30.609375 -1.421875 
Q 18.84375 -1.421875 12.171875 6.21875 
Q 5.515625 13.875 5.515625 27.296875 
Q 5.515625 40.765625 12.171875 48.375 
Q 18.84375 56 30.609375 56 
z
" id="DejaVuSans-111"/>
      <path d="M 9.421875 54.6875 
L 18.40625 54.6875 
L 18.40625 0 
L 9.421875 0 
z
M 9.421875 75.984375 
L 18.40625 75.984375 
L 18.40625 64.59375 
L 9.421875 64.59375 
z
" id="DejaVuSans-105"/>
      <path d="M 52 44.1875 
Q 55.375 50.25 60.0625 53.125 
Q 64.75 56 71.09375 56 
Q 79.640625 56 84.28125 50.015625 
Q 88.921875 44.046875 88.921875 33.015625 
L 88.921875 0 
L 79.890625 0 
L 79.890625 32.71875 
Q 79.890625 40.578125 77.09375 44.375 
Q 74.3125 48.1875 68.609375 48.1875 
Q 61.625 48.1875 57.5625 43.546875 
Q 53.515625 38.921875 53.515625 30.90625 
L 53.515625 0 
L 44.484375 0 
L 44.484375 32.71875 
Q 44.484375 40.625 41.703125 44.40625 
Q 38.921875 48.1875 33.109375 48.1875 
Q 26.21875 48.1875 22.15625 43.53125 
Q 18.109375 38.875 18.109375 30.90625 
L 18.109375 0 
L 9.078125 0 
L 9.078125 54.6875 
L 18.109375 54.6875 
L 18.109375 46.1875 
Q 21.1875 51.21875 25.484375 53.609375 
Q 29.78125 56 35.6875 56 
Q 41.65625 56 45.828125 52.96875 
Q 50 49.953125 52 44.1875 
z
" id="DejaVuSans-109"/>
      <path d="M 45.40625 46.390625 
L 45.40625 75.984375 
L 54.390625 75.984375 
L 54.390625 0 
L 45.40625 0 
L 45.40625 8.203125 
Q 42.578125 3.328125 38.25 0.953125 
Q 33.9375 -1.421875 27.875 -1.421875 
Q 17.96875 -1.421875 11.734375 6.484375 
Q 5.515625 14.40625 5.515625 27.296875 
Q 5.515625 40.1875 11.734375 48.09375 
Q 17.96875 56 27.875 56 
Q 33.9375 56 38.25 53.625 
Q 42.578125 51.265625 45.40625 46.390625 
z
M 14.796875 27.296875 
Q 14.796875 17.390625 18.875 11.75 
Q 22.953125 6.109375 30.078125 6.109375 
Q 37.203125 6.109375 41.296875 11.75 
Q 45.40625 17.390625 45.40625 27.296875 
Q 45.40625 37.203125 41.296875 42.84375 
Q 37.203125 48.484375 30.078125 48.484375 
Q 22.953125 48.484375 18.875 42.84375 
Q 14.796875 37.203125 14.796875 27.296875 
z
" id="DejaVuSans-100"/>
     </defs>
     <g transform="translate(383.019 58.070437)scale(0.1 -0.1)">
      <use xlink:href="#DejaVuSans-102"/>
      <use x="35.205078" xlink:href="#DejaVuSans-110"/>
      <use x="98.583984" xlink:href="#DejaVuSans-111"/>
      <use x="159.765625" xlink:href="#DejaVuSans-105"/>
      <use x="187.548828" xlink:href="#DejaVuSans-109"/>
      <use x="284.960938" xlink:href="#DejaVuSans-111"/>
      <use x="346.142578" xlink:href="#DejaVuSans-100"/>
      <use x="409.619141" xlink:href="#DejaVuSans-48"/>
     </g>
    </g>
    <g id="line2d_127">
     <path d="M 355.019 69.248562 
L 375.019 69.248562 
" style="fill:none;stroke:#ff7f0e;stroke-linecap:square;stroke-width:2;"/>
    </g>
    <g id="line2d_128"/>
    <g id="text_15">
     <!-- fnoimod1 -->
     <g transform="translate(383.019 72.748562)scale(0.1 -0.1)">
      <use xlink:href="#DejaVuSans-102"/>
      <use x="35.205078" xlink:href="#DejaVuSans-110"/>
      <use x="98.583984" xlink:href="#DejaVuSans-111"/>
      <use x="159.765625" xlink:href="#DejaVuSans-105"/>
      <use x="187.548828" xlink:href="#DejaVuSans-109"/>
      <use x="284.960938" xlink:href="#DejaVuSans-111"/>
      <use x="346.142578" xlink:href="#DejaVuSans-100"/>
      <use x="409.619141" xlink:href="#DejaVuSans-49"/>
     </g>
    </g>
   </g>
  </g>
  <g id="text_16">
   <!-- Flicker Noise of BSIM4 Transistors with 131 kHz Sinusoidal Drive -->
   <defs>
    <path d="M 9.8125 72.90625 
L 51.703125 72.90625 
L 51.703125 64.59375 
L 19.671875 64.59375 
L 19.671875 43.109375 
L 48.578125 43.109375 
L 48.578125 34.8125 
L 19.671875 34.8125 
L 19.671875 0 
L 9.8125 0 
z
" id="DejaVuSans-70"/>
    <path d="M 9.421875 75.984375 
L 18.40625 75.984375 
L 18.40625 0 
L 9.421875 0 
z
" id="DejaVuSans-108"/>
    <path d="M 48.78125 52.59375 
L 48.78125 44.1875 
Q 44.96875 46.296875 41.140625 47.34375 
Q 37.3125 48.390625 33.40625 48.390625 
Q 24.65625 48.390625 19.8125 42.84375 
Q 14.984375 37.3125 14.984375 27.296875 
Q 14.984375 17.28125 19.8125 11.734375 
Q 24.65625 6.203125 33.40625 6.203125 
Q 37.3125 6.203125 41.140625 7.25 
Q 44.96875 8.296875 48.78125 10.40625 
L 48.78125 2.09375 
Q 45.015625 0.34375 40.984375 -0.53125 
Q 36.96875 -1.421875 32.421875 -1.421875 
Q 20.0625 -1.421875 12.78125 6.34375 
Q 5.515625 14.109375 5.515625 27.296875 
Q 5.515625 40.671875 12.859375 48.328125 
Q 20.21875 56 33.015625 56 
Q 37.15625 56 41.109375 55.140625 
Q 45.0625 54.296875 48.78125 52.59375 
z
" id="DejaVuSans-99"/>
    <path d="M 56.203125 29.59375 
L 56.203125 25.203125 
L 14.890625 25.203125 
Q 15.484375 15.921875 20.484375 11.0625 
Q 25.484375 6.203125 34.421875 6.203125 
Q 39.59375 6.203125 44.453125 7.46875 
Q 49.3125 8.734375 54.109375 11.28125 
L 54.109375 2.78125 
Q 49.265625 0.734375 44.1875 -0.34375 
Q 39.109375 -1.421875 33.890625 -1.421875 
Q 20.796875 -1.421875 13.15625 6.1875 
Q 5.515625 13.8125 5.515625 26.8125 
Q 5.515625 40.234375 12.765625 48.109375 
Q 20.015625 56 32.328125 56 
Q 43.359375 56 49.78125 48.890625 
Q 56.203125 41.796875 56.203125 29.59375 
z
M 47.21875 32.234375 
Q 47.125 39.59375 43.09375 43.984375 
Q 39.0625 48.390625 32.421875 48.390625 
Q 24.90625 48.390625 20.390625 44.140625 
Q 15.875 39.890625 15.1875 32.171875 
z
" id="DejaVuSans-101"/>
    <path d="M 41.109375 46.296875 
Q 39.59375 47.171875 37.8125 47.578125 
Q 36.03125 48 33.890625 48 
Q 26.265625 48 22.1875 43.046875 
Q 18.109375 38.09375 18.109375 28.8125 
L 18.109375 0 
L 9.078125 0 
L 9.078125 54.6875 
L 18.109375 54.6875 
L 18.109375 46.1875 
Q 20.953125 51.171875 25.484375 53.578125 
Q 30.03125 56 36.53125 56 
Q 37.453125 56 38.578125 55.875 
Q 39.703125 55.765625 41.0625 55.515625 
z
" id="DejaVuSans-114"/>
    <path d="M 9.8125 72.90625 
L 23.09375 72.90625 
L 55.421875 11.921875 
L 55.421875 72.90625 
L 64.984375 72.90625 
L 64.984375 0 
L 51.703125 0 
L 19.390625 60.984375 
L 19.390625 0 
L 9.8125 0 
z
" id="DejaVuSans-78"/>
    <path d="M 44.28125 53.078125 
L 44.28125 44.578125 
Q 40.484375 46.53125 36.375 47.5 
Q 32.28125 48.484375 27.875 48.484375 
Q 21.1875 48.484375 17.84375 46.4375 
Q 14.5 44.390625 14.5 40.28125 
Q 14.5 37.15625 16.890625 35.375 
Q 19.28125 33.59375 26.515625 31.984375 
L 29.59375 31.296875 
Q 39.15625 29.25 43.1875 25.515625 
Q 47.21875 21.78125 47.21875 15.09375 
Q 47.21875 7.46875 41.1875 3.015625 
Q 35.15625 -1.421875 24.609375 -1.421875 
Q 20.21875 -1.421875 15.453125 -0.5625 
Q 10.6875 0.296875 5.421875 2 
L 5.421875 11.28125 
Q 10.40625 8.6875 15.234375 7.390625 
Q 20.0625 6.109375 24.8125 6.109375 
Q 31.15625 6.109375 34.5625 8.28125 
Q 37.984375 10.453125 37.984375 14.40625 
Q 37.984375 18.0625 35.515625 20.015625 
Q 33.0625 21.96875 24.703125 23.78125 
L 21.578125 24.515625 
Q 13.234375 26.265625 9.515625 29.90625 
Q 5.8125 33.546875 5.8125 39.890625 
Q 5.8125 47.609375 11.28125 51.796875 
Q 16.75 56 26.8125 56 
Q 31.78125 56 36.171875 55.265625 
Q 40.578125 54.546875 44.28125 53.078125 
z
" id="DejaVuSans-115"/>
    <path d="M 19.671875 34.8125 
L 19.671875 8.109375 
L 35.5 8.109375 
Q 43.453125 8.109375 47.28125 11.40625 
Q 51.125 14.703125 51.125 21.484375 
Q 51.125 28.328125 47.28125 31.5625 
Q 43.453125 34.8125 35.5 34.8125 
z
M 19.671875 64.796875 
L 19.671875 42.828125 
L 34.28125 42.828125 
Q 41.5 42.828125 45.03125 45.53125 
Q 48.578125 48.25 48.578125 53.8125 
Q 48.578125 59.328125 45.03125 62.0625 
Q 41.5 64.796875 34.28125 64.796875 
z
M 9.8125 72.90625 
L 35.015625 72.90625 
Q 46.296875 72.90625 52.390625 68.21875 
Q 58.5 63.53125 58.5 54.890625 
Q 58.5 48.1875 55.375 44.234375 
Q 52.25 40.28125 46.1875 39.3125 
Q 53.46875 37.75 57.5 32.78125 
Q 61.53125 27.828125 61.53125 20.40625 
Q 61.53125 10.640625 54.890625 5.3125 
Q 48.25 0 35.984375 0 
L 9.8125 0 
z
" id="DejaVuSans-66"/>
    <path d="M 53.515625 70.515625 
L 53.515625 60.890625 
Q 47.90625 63.578125 42.921875 64.890625 
Q 37.9375 66.21875 33.296875 66.21875 
Q 25.25 66.21875 20.875 63.09375 
Q 16.5 59.96875 16.5 54.203125 
Q 16.5 49.359375 19.40625 46.890625 
Q 22.3125 44.4375 30.421875 42.921875 
L 36.375 41.703125 
Q 47.40625 39.59375 52.65625 34.296875 
Q 57.90625 29 57.90625 20.125 
Q 57.90625 9.515625 50.796875 4.046875 
Q 43.703125 -1.421875 29.984375 -1.421875 
Q 24.8125 -1.421875 18.96875 -0.25 
Q 13.140625 0.921875 6.890625 3.21875 
L 6.890625 13.375 
Q 12.890625 10.015625 18.65625 8.296875 
Q 24.421875 6.59375 29.984375 6.59375 
Q 38.421875 6.59375 43.015625 9.90625 
Q 47.609375 13.234375 47.609375 19.390625 
Q 47.609375 24.75 44.3125 27.78125 
Q 41.015625 30.8125 33.5 32.328125 
L 27.484375 33.5 
Q 16.453125 35.6875 11.515625 40.375 
Q 6.59375 45.0625 6.59375 53.421875 
Q 6.59375 63.09375 13.40625 68.65625 
Q 20.21875 74.21875 32.171875 74.21875 
Q 37.3125 74.21875 42.625 73.28125 
Q 47.953125 72.359375 53.515625 70.515625 
z
" id="DejaVuSans-83"/>
    <path d="M 9.8125 72.90625 
L 19.671875 72.90625 
L 19.671875 0 
L 9.8125 0 
z
" id="DejaVuSans-73"/>
    <path d="M 37.796875 64.3125 
L 12.890625 25.390625 
L 37.796875 25.390625 
z
M 35.203125 72.90625 
L 47.609375 72.90625 
L 47.609375 25.390625 
L 58.015625 25.390625 
L 58.015625 17.1875 
L 47.609375 17.1875 
L 47.609375 0 
L 37.796875 0 
L 37.796875 17.1875 
L 4.890625 17.1875 
L 4.890625 26.703125 
z
" id="DejaVuSans-52"/>
    <path d="M -0.296875 72.90625 
L 61.375 72.90625 
L 61.375 64.59375 
L 35.5 64.59375 
L 35.5 0 
L 25.59375 0 
L 25.59375 64.59375 
L -0.296875 64.59375 
z
" id="DejaVuSans-84"/>
    <path d="M 18.3125 70.21875 
L 18.3125 54.6875 
L 36.8125 54.6875 
L 36.8125 47.703125 
L 18.3125 47.703125 
L 18.3125 18.015625 
Q 18.3125 11.328125 20.140625 9.421875 
Q 21.96875 7.515625 27.59375 7.515625 
L 36.8125 7.515625 
L 36.8125 0 
L 27.59375 0 
Q 17.1875 0 13.234375 3.875 
Q 9.28125 7.765625 9.28125 18.015625 
L 9.28125 47.703125 
L 2.6875 47.703125 
L 2.6875 54.6875 
L 9.28125 54.6875 
L 9.28125 70.21875 
z
" id="DejaVuSans-116"/>
    <path d="M 4.203125 54.6875 
L 13.1875 54.6875 
L 24.421875 12.015625 
L 35.59375 54.6875 
L 46.1875 54.6875 
L 57.421875 12.015625 
L 68.609375 54.6875 
L 77.59375 54.6875 
L 63.28125 0 
L 52.6875 0 
L 40.921875 44.828125 
L 29.109375 0 
L 18.5 0 
z
" id="DejaVuSans-119"/>
    <path d="M 54.890625 33.015625 
L 54.890625 0 
L 45.90625 0 
L 45.90625 32.71875 
Q 45.90625 40.484375 42.875 44.328125 
Q 39.84375 48.1875 33.796875 48.1875 
Q 26.515625 48.1875 22.3125 43.546875 
Q 18.109375 38.921875 18.109375 30.90625 
L 18.109375 0 
L 9.078125 0 
L 9.078125 75.984375 
L 18.109375 75.984375 
L 18.109375 46.1875 
Q 21.34375 51.125 25.703125 53.5625 
Q 30.078125 56 35.796875 56 
Q 45.21875 56 50.046875 50.171875 
Q 54.890625 44.34375 54.890625 33.015625 
z
" id="DejaVuSans-104"/>
    <path d="M 40.578125 39.3125 
Q 47.65625 37.796875 51.625 33 
Q 55.609375 28.21875 55.609375 21.1875 
Q 55.609375 10.40625 48.1875 4.484375 
Q 40.765625 -1.421875 27.09375 -1.421875 
Q 22.515625 -1.421875 17.65625 -0.515625 
Q 12.796875 0.390625 7.625 2.203125 
L 7.625 11.71875 
Q 11.71875 9.328125 16.59375 8.109375 
Q 21.484375 6.890625 26.8125 6.890625 
Q 36.078125 6.890625 40.9375 10.546875 
Q 45.796875 14.203125 45.796875 21.1875 
Q 45.796875 27.640625 41.28125 31.265625 
Q 36.765625 34.90625 28.71875 34.90625 
L 20.21875 34.90625 
L 20.21875 43.015625 
L 29.109375 43.015625 
Q 36.375 43.015625 40.234375 45.921875 
Q 44.09375 48.828125 44.09375 54.296875 
Q 44.09375 59.90625 40.109375 62.90625 
Q 36.140625 65.921875 28.71875 65.921875 
Q 24.65625 65.921875 20.015625 65.03125 
Q 15.375 64.15625 9.8125 62.3125 
L 9.8125 71.09375 
Q 15.4375 72.65625 20.34375 73.4375 
Q 25.25 74.21875 29.59375 74.21875 
Q 40.828125 74.21875 47.359375 69.109375 
Q 53.90625 64.015625 53.90625 55.328125 
Q 53.90625 49.265625 50.4375 45.09375 
Q 46.96875 40.921875 40.578125 39.3125 
z
" id="DejaVuSans-51"/>
    <path d="M 8.5 21.578125 
L 8.5 54.6875 
L 17.484375 54.6875 
L 17.484375 21.921875 
Q 17.484375 14.15625 20.5 10.265625 
Q 23.53125 6.390625 29.59375 6.390625 
Q 36.859375 6.390625 41.078125 11.03125 
Q 45.3125 15.671875 45.3125 23.6875 
L 45.3125 54.6875 
L 54.296875 54.6875 
L 54.296875 0 
L 45.3125 0 
L 45.3125 8.40625 
Q 42.046875 3.421875 37.71875 1 
Q 33.40625 -1.421875 27.6875 -1.421875 
Q 18.265625 -1.421875 13.375 4.4375 
Q 8.5 10.296875 8.5 21.578125 
z
M 31.109375 56 
z
" id="DejaVuSans-117"/>
    <path d="M 19.671875 64.796875 
L 19.671875 8.109375 
L 31.59375 8.109375 
Q 46.6875 8.109375 53.6875 14.9375 
Q 60.6875 21.78125 60.6875 36.53125 
Q 60.6875 51.171875 53.6875 57.984375 
Q 46.6875 64.796875 31.59375 64.796875 
z
M 9.8125 72.90625 
L 30.078125 72.90625 
Q 51.265625 72.90625 61.171875 64.09375 
Q 71.09375 55.28125 71.09375 36.53125 
Q 71.09375 17.671875 61.125 8.828125 
Q 51.171875 0 30.078125 0 
L 9.8125 0 
z
" id="DejaVuSans-68"/>
    <path d="M 2.984375 54.6875 
L 12.5 54.6875 
L 29.59375 8.796875 
L 46.6875 54.6875 
L 56.203125 54.6875 
L 35.6875 0 
L 23.484375 0 
z
" id="DejaVuSans-118"/>
   </defs>
   <g transform="translate(50.945625 16.030125)scale(0.12 -0.12)">
    <use xlink:href="#DejaVuSans-70"/>
    <use x="57.519531" xlink:href="#DejaVuSans-108"/>
    <use x="85.302734" xlink:href="#DejaVuSans-105"/>
    <use x="113.085938" xlink:href="#DejaVuSans-99"/>
    <use x="168.066406" xlink:href="#DejaVuSans-107"/>
    <use x="225.929688" xlink:href="#DejaVuSans-101"/>
    <use x="287.453125" xlink:href="#DejaVuSans-114"/>
    <use x="328.566406" xlink:href="#DejaVuSans-32"/>
    <use x="360.353516" xlink:href="#DejaVuSans-78"/>
    <use x="435.158203" xlink:href="#DejaVuSans-111"/>
    <use x="496.339844" xlink:href="#DejaVuSans-105"/>
    <use x="524.123047" xlink:href="#DejaVuSans-115"/>
    <use x="576.222656" xlink:href="#DejaVuSans-101"/>
    <use x="637.746094" xlink:href="#DejaVuSans-32"/>
    <use x="669.533203" xlink:href="#DejaVuSans-111"/>
    <use x="730.714844" xlink:href="#DejaVuSans-102"/>
    <use x="765.919922" xlink:href="#DejaVuSans-32"/>
    <use x="797.707031" xlink:href="#DejaVuSans-66"/>
    <use x="866.294922" xlink:href="#DejaVuSans-83"/>
    <use x="929.771484" xlink:href="#DejaVuSans-73"/>
    <use x="959.263672" xlink:href="#DejaVuSans-77"/>
    <use x="1045.542969" xlink:href="#DejaVuSans-52"/>
    <use x="1109.166016" xlink:href="#DejaVuSans-32"/>
    <use x="1140.953125" xlink:href="#DejaVuSans-84"/>
    <use x="1201.818359" xlink:href="#DejaVuSans-114"/>
    <use x="1242.931641" xlink:href="#DejaVuSans-97"/>
    <use x="1304.210938" xlink:href="#DejaVuSans-110"/>
    <use x="1367.589844" xlink:href="#DejaVuSans-115"/>
    <use x="1419.689453" xlink:href="#DejaVuSans-105"/>
    <use x="1447.472656" xlink:href="#DejaVuSans-115"/>
    <use x="1499.572266" xlink:href="#DejaVuSans-116"/>
    <use x="1538.78125" xlink:href="#DejaVuSans-111"/>
    <use x="1599.962891" xlink:href="#DejaVuSans-114"/>
    <use x="1641.076172" xlink:href="#DejaVuSans-115"/>
    <use x="1693.175781" xlink:href="#DejaVuSans-32"/>
    <use x="1724.962891" xlink:href="#DejaVuSans-119"/>
    <use x="1806.75" xlink:href="#DejaVuSans-105"/>
    <use x="1834.533203" xlink:href="#DejaVuSans-116"/>
    <use x="1873.742188" xlink:href="#DejaVuSans-104"/>
    <use x="1937.121094" xlink:href="#DejaVuSans-32"/>
    <use x="1968.908203" xlink:href="#DejaVuSans-49"/>
    <use x="2032.53125" xlink:href="#DejaVuSans-51"/>
    <use x="2096.154297" xlink:href="#DejaVuSans-49"/>
    <use x="2159.777344" xlink:href="#DejaVuSans-32"/>
    <use x="2191.564453" xlink:href="#DejaVuSans-107"/>
    <use x="2249.474609" xlink:href="#DejaVuSans-72"/>
    <use x="2324.669922" xlink:href="#DejaVuSans-122"/>
    <use x="2377.160156" xlink:href="#DejaVuSans-32"/>
    <use x="2408.947266" xlink:href="#DejaVuSans-83"/>
    <use x="2472.423828" xlink:href="#DejaVuSans-105"/>
    <use x="2500.207031" xlink:href="#DejaVuSans-110"/>
    <use x="2563.585938" xlink:href="#DejaVuSans-117"/>
    <use x="2626.964844" xlink:href="#DejaVuSans-115"/>
    <use x="2679.064453" xlink:href="#DejaVuSans-111"/>
    <use x="2740.246094" xlink:href="#DejaVuSans-105"/>
    <use x="2768.029297" xlink:href="#DejaVuSans-100"/>
    <use x="2831.505859" xlink:href="#DejaVuSans-97"/>
    <use x="2892.785156" xlink:href="#DejaVuSans-108"/>
    <use x="2920.568359" xlink:href="#DejaVuSans-32"/>
    <use x="2952.355469" xlink:href="#DejaVuSans-68"/>
    <use x="3029.357422" xlink:href="#DejaVuSans-114"/>
    <use x="3070.470703" xlink:href="#DejaVuSans-105"/>
    <use x="3098.253906" xlink:href="#DejaVuSans-118"/>
    <use x="3157.433594" xlink:href="#DejaVuSans-101"/>
   </g>
  </g>
 </g>
 <defs>
  <clipPath id="p862303172d">
   <rect height="266.112" width="378.324" x="61.02" y="41.472"/>
  </clipPath>
 </defs>
</svg>
