<?xml version="1.0" encoding="utf-8" ?>
<svg xmlns="http://www.w3.org/2000/svg" xmlns:ev="http://www.w3.org/2001/xml-events" xmlns:xlink="http://www.w3.org/1999/xlink" baseProfile="full" height="100%" version="1.1" viewBox="-51.0,-101.0,513.0,180.0" width="100%">
  <defs/>
  <g id="bkgnd">
    <rect fill="white" height="180.0" stroke="none" stroke-width="1" width="513.0" x="-51.0" y="-101.0"/>
  </g>
  <g id="symbol" transform="translate(0,0)">
    <rect fill="none" height="100" stroke="none" width="100" x="-50.0" y="-50.0"/>
    <circle cx="0" cy="0" fill="white" r="25.0" stroke="black" stroke-width="1"/>
    <line stroke="black" stroke-linecap="round" stroke-width="1" x1="0" x2="0" y1="-25.0" y2="-50.0"/>
    <line stroke="black" stroke-linecap="round" stroke-width="1" x1="0" x2="0" y1="25.0" y2="50.0"/>
    <polyline fill="none" points="-18.75,-6.333333333333333 -18.0,-2.4166666666666665 -17.25,1.5833333333333333 -16.5,5.166666666666667 -15.75,-6.666666666666667 -15.0,-5.916666666666667 -14.25,2.9166666666666665 -13.5,4.5 -12.750000000000002,7.25 -12.0,0.16666666666666666 -11.25,-3.5 -10.500000000000002,4.916666666666667 -9.75,0.6666666666666666 -9.0,-7.25 -8.25,2.8333333333333335 -7.5,0.0 -6.75,-4.583333333333334 -6.0,6.416666666666667 -5.250000000000001,-3.4166666666666665 -4.5,5.5 -3.75,-3.5 -3.0,-0.8333333333333334 -2.25,2.0833333333333335 -1.5,-7.916666666666667 -0.75,4.333333333333333 0.0,7.5 0.75,8.166666666666666 1.5,-6.583333333333333 2.25,3.5833333333333335 3.0,-3.3333333333333335 3.75,-7.666666666666667 4.5,6.833333333333333 5.250000000000001,-3.5 6.0,0.8333333333333334 6.75,4.333333333333333 7.5,7.083333333333333 8.25,-8.083333333333334 9.0,4.0 9.75,1.5 10.500000000000002,7.833333333333333 11.25,7.583333333333333 12.0,1.5833333333333333 12.750000000000002,-2.1666666666666665 13.5,-3.9166666666666665 14.25,8.333333333333334 15.0,5.833333333333333 15.75,-5.583333333333333 16.5,0.8333333333333334 17.25,-7.0 18.0,6.5 18.75,-7.916666666666667" stroke="black" stroke-linecap="round" stroke-width="1"/>
  </g>
  <g id="text">
    <text fill="black" font-family="sans-serif" font-size="18" text-anchor="start" x="5" y="44.4">S(f)</text>
  </g>
  <g id="symbol" transform="translate(0,50.0)">
    <rect fill="none" height="50" stroke="none" width="50" x="-25.0" y="-25.0"/>
    <polyline fill="white" points="0,0 20.0,0 0,20.0 -20.0,0 0,0" stroke="black" stroke-linecap="round" stroke-width="1"/>
  </g>
  <g id="text"/>
  <g id="symbol" transform="translate(200,-50.0)">
    <rect fill="none" height="100" stroke="none" width="100" x="-50.0" y="-50.0"/>
    <circle cx="0" cy="0" fill="white" r="25.0" stroke="black" stroke-width="1"/>
    <line stroke="black" stroke-linecap="round" stroke-width="1" x1="-8.875" x2="8.875" y1="-8.875" y2="8.875"/>
    <line stroke="black" stroke-linecap="round" stroke-width="1" x1="8.875" x2="-8.875" y1="-8.875" y2="8.875"/>
  </g>
  <g id="text"/>
  <g id="wire">
    <polyline fill="none" points="0,-50.0 175.0,-50.0" stroke="black" stroke-linecap="round" stroke-width="1"/>
  </g>
  <g id="wire">
    <polyline fill="none" points="200,-25.0 200,0.0" stroke="black" stroke-linecap="round" stroke-width="1"/>
  </g>
  <g id="symbol" transform="translate(200,0.0)">
    <rect fill="none" height="50" stroke="none" width="50" x="-25.0" y="-25.0"/>
  </g>
  <g id="text">
    <text fill="black" font-family="sans-serif" font-size="18" text-anchor="middle" x="200" y="19.4">m(t)</text>
  </g>
  <g id="symbol" transform="translate(87.5,-50.0)">
    <rect fill="none" height="50" stroke="none" width="50" x="-25.0" y="-25.0"/>
  </g>
  <g id="text">
    <text fill="black" font-family="sans-serif" font-size="18" text-anchor="middle" x="87.5" y="-55.0">stationary noise</text>
  </g>
  <g id="wire">
    <polyline fill="none" points="225.0,-50.0 435.0,-50.0" stroke="black" stroke-linecap="round" stroke-width="1"/>
  </g>
  <g id="symbol" transform="translate(435.0,-50.0)">
    <rect fill="none" height="50" stroke="none" width="50" x="-25.0" y="-25.0"/>
    <polygon fill="black" points="15.0,0 -15.0,6.0 -15.0,-6.0" stroke="none"/>
  </g>
  <g id="text">
    <text fill="black" font-family="sans-serif" font-size="18" text-anchor="end" x="430.0" y="-61.0">cyclostationary noise</text>
  </g>
  <g id="symbol" transform="translate(100.0,-3.0)">
    <rect fill="none" height="160.0" stroke="none" width="275.0" x="-137.5" y="-80.0"/>
    <rect fill="none" height="160.0" stroke="black" stroke-dasharray="4 2" stroke-width="0.5" width="275.0" x="-137.5" y="-80.0"/>
  </g>
  <g id="text"/>
</svg>
