<?xml version="1.0" encoding="utf-8" ?>
<svg xmlns="http://www.w3.org/2000/svg" xmlns:ev="http://www.w3.org/2001/xml-events" xmlns:xlink="http://www.w3.org/1999/xlink" baseProfile="full" height="100%" version="1.1" viewBox="-101.0,-51.0,303.0,203.0" width="100%">
  <defs/>
  <g id="bkgnd">
    <rect fill="white" height="203.0" stroke="none" stroke-width="1" width="303.0" x="-101.0" y="-51.0"/>
  </g>
  <g id="symbol" transform="translate(0,0)">
    <rect fill="none" height="100" stroke="none" width="100" x="-50.0" y="-50.0"/>
    <rect fill="white" height="92" stroke="none" width="4" x="48.0" y="-46.0"/>
    <polyline fill="none" points="50.0,-50.0 50.0,-25.0 0,-25.0 0,25.0 50.0,25.0 50.0,50.0" stroke="black" stroke-linecap="round" stroke-width="1"/>
    <line fill="none" stroke="black" stroke-linecap="square" stroke-width="2" x1="0" x2="0" y1="-37.5" y2="37.5"/>
    <line fill="none" stroke="black" stroke-linecap="square" stroke-width="1" x1="-12.5" x2="-12.5" y1="-25.0" y2="25.0"/>
    <line fill="none" stroke="black" stroke-linecap="round" stroke-width="1" x1="-50.0" x2="-12.5" y1="0" y2="0"/>
    <polygon fill="black" points="10.0,19.0 40.0,25.0 10.0,31.0" stroke="none"/>
  </g>
  <g id="text">
    <text fill="black" font-family="sans-serif" font-size="18" text-anchor="start" x="5" y="7.2">M</text>
  </g>
  <g id="symbol" transform="translate(50.0,75.0)">
    <rect fill="none" height="100" stroke="none" width="100" x="-50.0" y="-50.0"/>
    <circle cx="0" cy="0" fill="white" r="25.0" stroke="black" stroke-width="1"/>
    <line stroke="black" stroke-linecap="round" stroke-width="1" x1="0" x2="0" y1="-25.0" y2="-50.0"/>
    <line stroke="black" stroke-linecap="round" stroke-width="1" x1="0" x2="0" y1="25.0" y2="50.0"/>
    <path d="M -18.75 0 C -14.0625 -12.5 -4.6875 -12.5 0 0 4.6875 12.5 14.0625 12.5 18.75 0" fill="none" stroke="black" stroke-linecap="round" stroke-width="1"/>
  </g>
  <g id="text">
    <text fill="black" font-family="sans-serif" font-size="18" text-anchor="start" x="55.0" y="119.4">-A sin(2πf₀)</text>
  </g>
  <g id="wire">
    <polyline fill="none" points="50.0,50.0 50.0,25.0" stroke="black" stroke-linecap="round" stroke-width="1"/>
  </g>
  <g id="symbol" transform="translate(50.0,125.0)">
    <rect fill="none" height="50" stroke="none" width="50" x="-25.0" y="-25.0"/>
    <polyline fill="white" points="0,0 20.0,0 0,20.0 -20.0,0 0,0" stroke="black" stroke-linecap="round" stroke-width="1"/>
  </g>
  <g id="text"/>
  <g id="symbol" transform="translate(-50.0,50)">
    <rect fill="none" height="100" stroke="none" width="100" x="-50.0" y="-50.0"/>
    <circle cx="0" cy="0" fill="white" r="25.0" stroke="black" stroke-width="1"/>
    <line stroke="black" stroke-linecap="round" stroke-width="1" x1="0" x2="0" y1="-25.0" y2="-50.0"/>
    <line stroke="black" stroke-linecap="round" stroke-width="1" x1="0" x2="0" y1="25.0" y2="50.0"/>
    <line stroke="black" stroke-linecap="round" stroke-width="1" x1="-7.0" x2="7.0" y1="12.5" y2="12.5"/>
    <line stroke="black" stroke-linecap="round" stroke-width="1" x1="-7.0" x2="7.0" y1="-12.5" y2="-12.5"/>
    <line stroke="black" stroke-linecap="round" stroke-width="1" x1="0" x2="0" y1="-5.5" y2="-19.5"/>
  </g>
  <g id="text">
    <text fill="black" font-family="sans-serif" font-size="18" text-anchor="start" x="-45.0" y="94.4">3V</text>
  </g>
  <g id="wire">
    <polyline fill="none" points="-50.0,0 -50.0,0.0" stroke="black" stroke-linecap="round" stroke-width="1"/>
  </g>
  <g id="symbol" transform="translate(-50.0,100.0)">
    <rect fill="none" height="50" stroke="none" width="50" x="-25.0" y="-25.0"/>
    <polyline fill="white" points="0,0 20.0,0 0,20.0 -20.0,0 0,0" stroke="black" stroke-linecap="round" stroke-width="1"/>
  </g>
  <g id="text"/>
  <g id="symbol" transform="translate(100.0,0.0)">
    <rect fill="none" height="100" stroke="none" width="100" x="-50.0" y="-50.0"/>
    <circle cx="0" cy="0" fill="white" r="25.0" stroke="black" stroke-width="1"/>
    <line stroke="black" stroke-linecap="round" stroke-width="1" x1="0" x2="0" y1="-25.0" y2="-50.0"/>
    <line stroke="black" stroke-linecap="round" stroke-width="1" x1="0" x2="0" y1="25.0" y2="50.0"/>
    <path d="M -18.75 0 C -14.0625 -12.5 -4.6875 -12.5 0 0 4.6875 12.5 14.0625 12.5 18.75 0" fill="none" stroke="black" stroke-linecap="round" stroke-width="1"/>
  </g>
  <g id="text">
    <text fill="black" font-family="sans-serif" font-size="18" text-anchor="start" x="105.0" y="44.4">A sin(2πf₀)</text>
  </g>
  <g id="wire">
    <polyline fill="none" points="50.0,-50.0 100.0,-50.0" stroke="black" stroke-linecap="round" stroke-width="1"/>
  </g>
  <g id="symbol" transform="translate(100.0,50.0)">
    <rect fill="none" height="50" stroke="none" width="50" x="-25.0" y="-25.0"/>
    <polyline fill="white" points="0,0 20.0,0 0,20.0 -20.0,0 0,0" stroke="black" stroke-linecap="round" stroke-width="1"/>
  </g>
  <g id="text"/>
</svg>
