<?xml version="1.0" encoding="utf-8" ?>
<svg xmlns="http://www.w3.org/2000/svg" xmlns:ev="http://www.w3.org/2001/xml-events" xmlns:xlink="http://www.w3.org/1999/xlink" baseProfile="full" height="100%" version="1.1" viewBox="-51.0,-51.0,353.0,103.0" width="100%">
  <defs/>
  <g id="bkgnd">
    <rect fill="white" height="103.0" stroke="none" stroke-width="1" width="353.0" x="-51.0" y="-51.0"/>
  </g>
  <g id="symbol" transform="translate(0,0)">
    <rect fill="none" height="100" stroke="none" width="100" x="-50.0" y="-50.0"/>
    <circle cx="0" cy="0" fill="white" r="25.0" stroke="black" stroke-width="1"/>
    <line stroke="black" stroke-linecap="round" stroke-width="1" x1="0" x2="0" y1="-25.0" y2="-50.0"/>
    <line stroke="black" stroke-linecap="round" stroke-width="1" x1="0" x2="0" y1="25.0" y2="50.0"/>
    <path d="M -18.75 0 C -14.0625 -12.5 -4.6875 -12.5 0 0 4.6875 12.5 14.0625 12.5 18.75 0" fill="none" stroke="black" stroke-linecap="round" stroke-width="1"/>
  </g>
  <g id="text">
    <text fill="black" font-family="sans-serif" font-size="18" text-anchor="start" x="5" y="-30.0">Vmod</text>
    <text fill="black" font-family="sans-serif" font-size="18" text-anchor="start" x="5" y="44.4">𝘈 sin(2π𝘧₀)</text>
  </g>
  <g id="symbol" transform="translate(125,0) rotate(-90)">
    <rect fill="none" height="100" stroke="none" width="100" x="-50.0" y="-50.0"/>
    <rect fill="white" height="4" stroke="none" width="92" x="-46.0" y="-2"/>
    <polyline fill="none" points="-50.0,0 -30,0 -25,-10 -20,0 -20,0 -15,10 -10,0 -10,0 -5,-10 0,0 0,0 5,10 10,0 10,0 15,-10 20,0 20,0 25,10 30,0 50.0,0" stroke="black" stroke-linecap="round" stroke-width="1"/>
  </g>
  <g id="text">
    <text fill="black" font-family="sans-serif" font-size="18" text-anchor="start" x="140.0" y="-5">R1</text>
  </g>
  <g id="symbol" transform="translate(250,0) rotate(-90)">
    <rect fill="none" height="100" stroke="none" width="100" x="-50.0" y="-50.0"/>
    <rect fill="white" height="4" stroke="none" width="92" x="-46.0" y="-2"/>
    <polyline fill="none" points="-50.0,0 -30,0 -25,-10 -20,0 -20,0 -15,10 -10,0 -10,0 -5,-10 0,0 0,0 5,10 10,0 10,0 15,-10 20,0 20,0 25,10 30,0 50.0,0" stroke="black" stroke-linecap="round" stroke-width="1"/>
  </g>
  <g id="text">
    <text fill="black" font-family="sans-serif" font-size="18" text-anchor="start" x="265.0" y="-5">R2</text>
  </g>
  <g id="wire">
    <polyline fill="none" points="0,-50.0 250,-50.0" stroke="black" stroke-linecap="round" stroke-width="1"/>
  </g>
  <g id="wire">
    <polyline fill="none" points="0,50.0 250,50.0" stroke="black" stroke-linecap="round" stroke-width="1"/>
  </g>
</svg>
